<svg
        xmlns="http://www.w3.org/2000/svg"
        xmlns:xlink="http://www.w3.org/1999/xlink"
        width="20px" height="20px">
    <path fill-rule="evenodd"  opacity="0.749" fill="rgb(189, 195, 199)"
          d="M17.071,2.904 C13.165,-1.002 6.810,-1.003 2.904,2.904 C-1.002,6.809 -1.002,13.164 2.904,17.070 C6.809,20.976 13.165,20.976 17.071,17.070 C20.976,13.164 20.976,6.809 17.071,2.904 ZM13.937,13.937 C13.637,14.238 13.149,14.238 12.848,13.937 L9.987,11.076 L6.990,14.073 C6.689,14.374 6.202,14.374 5.901,14.073 C5.600,13.772 5.600,13.284 5.901,12.984 L8.898,9.987 L6.037,7.126 C5.736,6.825 5.736,6.337 6.037,6.037 C6.338,5.736 6.825,5.736 7.126,6.037 L9.987,8.897 L12.711,6.173 C13.012,5.872 13.500,5.872 13.801,6.173 C14.102,6.474 14.102,6.962 13.801,7.263 L11.077,9.987 L13.937,12.848 C14.238,13.148 14.238,13.636 13.937,13.937 Z"/>
</svg>